<svg xmlns="http://www.w3.org/2000/svg" xmlns:xlink="http://www.w3.org/1999/xlink" width="500" zoomAndPan="magnify" viewBox="0 0 375 374.999991" height="500" preserveAspectRatio="xMidYMid meet" version="1.0"><defs><clipPath id="id1"><path d="M 52.53125 317 L 322.652344 317 L 322.652344 357.785156 L 52.53125 357.785156 Z M 52.53125 317 " clip-rule="nonzero"/></clipPath><clipPath id="id2"><path d="M 53 334 L 322.652344 334 L 322.652344 357.785156 L 53 357.785156 Z M 53 334 " clip-rule="nonzero"/></clipPath></defs><g clip-path="url(#id1)"><path fill="#f1f3b2" d="M 186.285156 317.476562 C 156.671875 315.589844 150.378906 328.183594 132.109375 326.929688 C 113.839844 325.664062 110.054688 321.882812 96.828125 330.070312 C 83.597656 338.261719 44.539062 334.484375 53.992188 339.523438 C 63.441406 344.5625 135.253906 342.675781 161.085938 352.121094 C 186.914062 361.5625 237.9375 357.789062 259.359375 351.488281 C 280.78125 345.195312 293.378906 347.082031 305.976562 345.195312 C 318.582031 343.296875 328.027344 335.742188 319.207031 334.484375 C 310.382812 333.222656 229.75 321.257812 229.75 321.257812 L 186.285156 317.476562 " fill-opacity="1" fill-rule="nonzero"/></g><path fill="#ced392" d="M 161.710938 324.402344 C 154.152344 325.664062 151.632812 329.445312 140.292969 330.703125 C 128.957031 331.964844 126.4375 335.117188 135.253906 335.742188 C 144.074219 336.371094 171.164062 340.148438 196.992188 343.929688 C 222.820312 347.710938 231.636719 342.675781 249.28125 338.261719 C 266.917969 333.855469 283.929688 334.484375 278.882812 331.964844 C 273.851562 329.445312 234.164062 321.257812 234.164062 321.257812 L 161.710938 324.402344 " fill-opacity="1" fill-rule="nonzero"/><g clip-path="url(#id2)"><path fill="#ced392" d="M 305.976562 345.195312 C 318.347656 343.335938 327.683594 336.019531 319.667969 334.558594 C 316.363281 336.320312 310.898438 338.746094 304.71875 339.523438 C 294.632812 340.78125 289.601562 338.890625 267.550781 345.816406 C 245.496094 352.75 223.453125 352.75 204.550781 350.863281 C 185.652344 348.96875 152.265625 349.601562 135.882812 345.816406 C 119.503906 342.042969 95.570312 340.148438 82.964844 340.78125 C 70.367188 341.410156 55.25 339.523438 53.992188 339.523438 C 63.441406 344.5625 135.253906 342.675781 161.085938 352.121094 C 186.914062 361.5625 237.9375 357.789062 259.359375 351.488281 C 280.78125 345.195312 293.378906 347.082031 305.976562 345.195312 " fill-opacity="1" fill-rule="nonzero"/></g><path fill="#ced392" d="M 291.46875 332.964844 C 291.386719 332.640625 290.976562 332.355469 290.644531 332.496094 C 290.269531 332.648438 289.910156 332.699219 289.511719 332.605469 C 289.117188 332.503906 288.832031 332.199219 288.449219 332.0625 C 288.039062 331.914062 287.550781 332.382812 287.714844 332.804688 C 288.167969 333.992188 289.945312 334.214844 290.996094 333.789062 C 291.335938 333.648438 291.5625 333.339844 291.46875 332.964844 " fill-opacity="1" fill-rule="nonzero"/><path fill="#ced392" d="M 301.722656 334.542969 C 300.421875 334.207031 298.820312 334.808594 298.453125 336.195312 C 298.320312 336.6875 299.011719 337.171875 299.371094 336.734375 C 299.863281 336.117188 300.539062 335.609375 301.371094 335.828125 C 302.199219 336.042969 302.550781 334.757812 301.722656 334.542969 " fill-opacity="1" fill-rule="nonzero"/><path fill="#ced392" d="M 278.539062 335.769531 C 277.703125 336.195312 276.863281 336.613281 276.027344 337.042969 C 275.285156 337.414062 275.9375 338.523438 276.671875 338.15625 C 277.519531 337.730469 278.355469 337.3125 279.191406 336.894531 C 279.941406 336.519531 279.28125 335.394531 278.539062 335.769531 " fill-opacity="1" fill-rule="nonzero"/><path fill="#ced392" d="M 257.296875 342.027344 C 255.824219 342.445312 254.347656 342.851562 252.886719 343.3125 C 252.078125 343.570312 252.410156 344.804688 253.238281 344.589844 C 254.722656 344.210938 256.1875 343.777344 257.65625 343.351562 C 258.507812 343.109375 258.148438 341.785156 257.296875 342.027344 " fill-opacity="1" fill-rule="nonzero"/><path fill="#ced392" d="M 149.570312 342.21875 C 149.363281 342.007812 149.152344 341.792969 148.945312 341.578125 C 148.703125 341.34375 148.261719 341.324219 148.027344 341.578125 C 147.792969 341.84375 147.769531 342.25 148.027344 342.496094 C 148.238281 342.710938 148.445312 342.917969 148.660156 343.121094 C 148.902344 343.363281 149.335938 343.386719 149.570312 343.121094 C 149.804688 342.871094 149.828125 342.46875 149.570312 342.21875 " fill-opacity="1" fill-rule="nonzero"/><path fill="#ced392" d="M 93.675781 335.785156 C 93.257812 335.785156 92.835938 335.777344 92.417969 335.777344 C 91.65625 335.777344 91.65625 336.96875 92.417969 336.96875 C 92.835938 336.96875 93.257812 336.96875 93.675781 336.960938 C 94.4375 336.960938 94.4375 335.785156 93.675781 335.785156 " fill-opacity="1" fill-rule="nonzero"/><path fill="#ced392" d="M 105.457031 330.261719 C 105.207031 330.035156 104.824219 330.019531 104.578125 330.261719 C 104.363281 330.476562 104.15625 330.679688 103.945312 330.894531 C 103.710938 331.121094 103.695312 331.546875 103.945312 331.773438 C 104.195312 332.003906 104.582031 332.023438 104.832031 331.773438 C 105.039062 331.570312 105.253906 331.355469 105.457031 331.144531 C 105.683594 330.910156 105.707031 330.488281 105.457031 330.261719 " fill-opacity="1" fill-rule="nonzero"/><path fill="#ced392" d="M 125.804688 329.300781 C 124.8125 329.300781 124.804688 330.851562 125.804688 330.851562 C 126.796875 330.851562 126.804688 329.300781 125.804688 329.300781 " fill-opacity="1" fill-rule="nonzero"/><path fill="#ced392" d="M 124.078125 337.6875 C 123.449219 337.496094 122.808594 337.304688 122.167969 337.113281 C 121.625 336.953125 121.40625 337.78125 121.933594 337.964844 C 122.566406 338.1875 123.191406 338.40625 123.820312 338.628906 C 124.410156 338.832031 124.679688 337.863281 124.078125 337.6875 " fill-opacity="1" fill-rule="nonzero"/><path fill="#ced392" d="M 174.941406 345.890625 L 173.054688 345.875 C 172.320312 345.867188 172.320312 347.03125 173.054688 347.023438 L 174.941406 347.007812 C 175.660156 347.007812 175.660156 345.898438 174.941406 345.890625 " fill-opacity="1" fill-rule="nonzero"/><path fill="#ced392" d="M 217.78125 348.953125 C 216.945312 348.953125 216.945312 350.246094 217.78125 350.246094 C 218.621094 350.246094 218.621094 348.953125 217.78125 348.953125 " fill-opacity="1" fill-rule="nonzero"/><path fill="#60c0c4" d="M 228.46875 70.59375 C 230.46875 70.796875 232.503906 70.84375 234.507812 70.6875 L 229.324219 75.996094 C 229.019531 74.007812 228.734375 72.15625 228.46875 70.59375 Z M 213.160156 65.097656 C 213.226562 63.144531 213.707031 61.25 214.609375 59.507812 C 215.320312 58.152344 216.527344 56.402344 218.3125 56.8125 C 219.839844 57.167969 220.882812 58.863281 221.390625 60.230469 C 221.976562 61.792969 222.242188 63.460938 222.269531 65.136719 C 219.457031 65.039062 215.996094 65.054688 213.160156 65.097656 Z M 205.976562 89.195312 C 205.03125 89.414062 203.992188 89.292969 203.15625 88.769531 C 201.527344 87.75 201.195312 85.566406 201.078125 83.8125 C 200.910156 81.394531 200.835938 78.949219 200.796875 76.527344 C 200.769531 74.585938 201.101562 72.738281 202.765625 71.546875 C 204.054688 70.636719 205.777344 70.21875 207.300781 70.671875 C 206.902344 75.777344 206.316406 83.4375 205.976562 89.195312 Z M 249.28125 68.058594 L 242.664062 58.921875 L 240.773438 64.277344 L 236.269531 68.886719 C 233.589844 69.226562 230.917969 69.320312 228.21875 69.109375 C 227.910156 67.292969 227.667969 66.089844 227.542969 65.847656 C 227.382812 65.53125 226.023438 65.332031 224.078125 65.214844 C 224.070312 63.058594 223.679688 60.851562 222.785156 58.90625 C 221.960938 57.113281 220.449219 55.300781 218.382812 55 C 216.121094 54.667969 214.328125 56.308594 213.292969 58.152344 C 212.117188 60.257812 211.574219 62.71875 211.597656 65.128906 C 209.304688 65.164062 207.703125 65.222656 207.703125 65.222656 C 207.703125 65.414062 207.59375 66.875 207.425781 69.066406 C 205.835938 68.625 204.132812 68.808594 202.621094 69.554688 C 200.519531 70.597656 199.320312 72.597656 199.074219 74.882812 C 198.910156 76.394531 199.058594 77.945312 199.117188 79.464844 C 199.167969 80.910156 199.195312 82.367188 199.292969 83.8125 C 199.460938 86.175781 199.992188 88.769531 202.085938 90.195312 C 203.199219 90.949219 204.566406 91.214844 205.875 91.015625 C 205.699219 94.320312 205.640625 96.695312 205.816406 97.023438 C 206.441406 98.289062 231.636719 99.234375 231.953125 97.339844 C 232.085938 96.5625 231.460938 91.222656 230.636719 85.15625 L 244.242188 68.367188 L 249.28125 68.058594 " fill-opacity="1" fill-rule="nonzero"/><path fill="#f4b88e" d="M 188.171875 91.992188 L 190.691406 87.265625 C 190.691406 87.265625 190.691406 77.503906 193.527344 75.300781 C 196.363281 73.097656 203.289062 71.832031 204.238281 74.035156 C 205.183594 76.246094 204.867188 82.855469 203.605469 85.691406 C 202.347656 88.527344 197.625 89.152344 197.625 89.152344 L 193.527344 95.769531 L 188.171875 91.992188 " fill-opacity="1" fill-rule="nonzero"/><path fill="#f4b88e" d="M 162.675781 36.242188 C 160.042969 39.839844 146.386719 58.269531 139.917969 62.535156 C 133.445312 66.800781 149.707031 90.714844 151.640625 83.753906 C 153.566406 76.785156 163.519531 57.144531 163.519531 57.144531 L 162.675781 36.242188 " fill-opacity="1" fill-rule="nonzero"/><path fill="#f0a083" d="M 161.691406 38.042969 C 160.457031 39.730469 156.789062 44.6875 152.574219 49.917969 C 152.183594 57.328125 153.785156 66.492188 156.203125 72.015625 C 159.332031 65.265625 162.542969 58.945312 162.542969 58.945312 L 161.691406 38.042969 " fill-opacity="1" fill-rule="nonzero"/><path fill="#16836e" d="M 191.324219 163.324219 C 191.324219 163.324219 199.828125 145.84375 188.015625 133.085938 C 183.117188 127.796875 172.421875 131.667969 166.28125 116.554688 C 163.351562 109.335938 158.25 102.855469 152.109375 103.796875 C 145.960938 104.742188 135.566406 100.492188 134.148438 97.1875 C 132.734375 93.882812 128.488281 88.679688 128.488281 88.679688 C 128.488281 88.679688 126.121094 108.046875 129.425781 118.910156 C 132.734375 129.78125 142.1875 126.007812 142.65625 136.390625 C 143.125 146.785156 157.773438 158.125 170.0625 155.289062 C 182.347656 152.453125 191.324219 163.324219 191.324219 163.324219 " fill-opacity="1" fill-rule="nonzero"/><path fill="#16836e" d="M 189.433594 161.90625 C 189.433594 161.90625 181.398438 151.511719 187.070312 139.226562 C 190.71875 131.324219 197.941406 136.867188 202.664062 126.945312 C 207.386719 117.023438 210.816406 113.351562 217.304688 109.945312 C 226.289062 105.214844 235.265625 108.527344 240.457031 97.65625 C 243.109375 92.117188 250.851562 89.152344 250.851562 89.152344 C 250.851562 89.152344 247.078125 98.132812 247.9375 109.453125 C 248.640625 118.652344 244.277344 128.289062 241.875 133.085938 C 236.683594 143.476562 220.941406 146.785156 212.582031 146.785156 C 198.410156 146.785156 189.433594 161.90625 189.433594 161.90625 " fill-opacity="1" fill-rule="nonzero"/><path fill="#1ca389" d="M 249.773438 90.832031 C 247.019531 92.433594 245.269531 94.960938 243.949219 97.757812 C 243.992188 97.089844 244.042969 96.421875 244.183594 95.753906 C 244.449219 94.503906 244.851562 93.285156 245.378906 92.125 C 245.402344 92.082031 245.410156 92.039062 245.417969 91.992188 C 246.789062 90.996094 248.382812 90.3125 250.132812 90.046875 C 250.007812 90.3125 249.882812 90.570312 249.773438 90.832031 Z M 247.019531 109.464844 C 246.972656 111.382812 246.9375 113.316406 246.8125 115.238281 C 246.753906 115.222656 246.695312 115.21875 246.636719 115.21875 C 243.691406 115.429688 240.890625 115.046875 238.261719 113.6875 C 240.019531 111.324219 241.15625 108.445312 242.140625 105.632812 C 243.75 101.019531 245.1875 95.378906 249.207031 92.25 C 247.214844 97.714844 247.128906 103.671875 247.019531 109.464844 Z M 246.277344 120.058594 C 245.769531 123.105469 244.808594 126.019531 243.382812 128.765625 C 240.863281 133.660156 237.042969 137.835938 232.464844 140.878906 C 232.546875 140.722656 232.5625 140.527344 232.445312 140.355469 C 231.613281 139.203125 230.261719 138.257812 229.136719 137.390625 C 227.933594 136.449219 226.671875 135.574219 225.363281 134.78125 C 222.886719 133.292969 220.234375 132.117188 217.488281 131.226562 C 217.695312 131.058594 217.890625 130.890625 218.089844 130.714844 C 219.183594 129.730469 220.148438 128.628906 221.058594 127.488281 C 221.160156 127.628906 221.332031 127.722656 221.558594 127.722656 C 224.957031 127.660156 228.339844 128.28125 231.476562 129.589844 C 233.011719 130.230469 234.414062 131.058594 235.808594 131.949219 C 237.109375 132.761719 238.453125 133.503906 240.03125 133.402344 C 240.722656 133.363281 240.730469 132.34375 240.03125 132.328125 C 238.378906 132.292969 237.011719 131.277344 235.675781 130.421875 C 234.296875 129.539062 232.828125 128.796875 231.304688 128.195312 C 228.316406 127.011719 225.113281 126.425781 221.902344 126.433594 C 222.726562 125.382812 223.535156 124.324219 224.414062 123.324219 C 225.511719 122.070312 226.722656 120.886719 228.15625 120.011719 C 229.75 119.035156 231.59375 118.558594 233.289062 117.792969 C 234.992188 117.03125 236.359375 115.9375 237.5 114.636719 C 240.273438 116.171875 243.558594 116.9375 246.71875 116.480469 C 246.613281 117.675781 246.476562 118.867188 246.277344 120.058594 Z M 231.414062 141.554688 C 228.890625 143.089844 226.164062 144.285156 223.3125 145.066406 C 220.039062 145.96875 216.6875 146.160156 213.308594 146.320312 C 211.246094 146.421875 209.164062 146.5625 207.160156 147.078125 C 205.632812 147.460938 204.164062 148.054688 202.765625 148.78125 C 202.347656 148.480469 201.914062 148.199219 201.519531 147.9375 C 200.613281 147.328125 199.667969 146.785156 198.660156 146.363281 C 196.832031 145.601562 194.832031 145.351562 192.953125 146.085938 C 192.84375 146.128906 192.753906 146.195312 192.6875 146.285156 C 193.789062 144.199219 195.253906 142.304688 197.007812 140.71875 C 197.175781 140.710938 197.351562 140.636719 197.476562 140.453125 C 197.558594 140.34375 197.632812 140.226562 197.714844 140.105469 C 198.117188 139.777344 198.535156 139.453125 198.96875 139.152344 C 202.453125 136.742188 206.652344 135.929688 210.628906 134.644531 C 210.507812 134.957031 210.605469 135.347656 211.03125 135.4375 C 213.507812 135.957031 215.84375 136.972656 217.929688 138.394531 C 220.082031 139.871094 221.710938 141.773438 223.09375 143.964844 C 223.503906 144.617188 224.527344 144.035156 224.136719 143.359375 C 221.519531 138.808594 216.746094 135.449219 211.664062 134.289062 C 213.300781 133.710938 214.878906 133.019531 216.335938 132.058594 C 216.410156 132.160156 216.519531 132.242188 216.664062 132.285156 C 219.484375 133.167969 222.183594 134.371094 224.722656 135.875 C 225.957031 136.605469 227.148438 137.40625 228.292969 138.269531 C 228.875 138.71875 229.441406 139.183594 229.992188 139.660156 C 230.550781 140.136719 231.0625 140.71875 231.679688 141.128906 C 231.769531 141.1875 231.863281 141.207031 231.960938 141.203125 C 231.78125 141.320312 231.597656 141.4375 231.414062 141.554688 Z M 189.648438 150.941406 C 189.28125 148.746094 188.730469 146.5625 188.566406 144.351562 C 188.355469 141.445312 188.78125 137.933594 191.191406 135.964844 C 192.59375 134.804688 194.480469 134.414062 196.125 133.726562 C 197.5 133.160156 198.742188 132.382812 199.867188 131.417969 C 202.070312 129.523438 203.757812 127.144531 205.222656 124.660156 C 206.734375 122.078125 208.085938 119.386719 209.796875 116.929688 C 209.929688 116.738281 210.0625 116.554688 210.203125 116.371094 C 209.277344 118.910156 208.351562 121.453125 207.4375 124 L 205.523438 129.347656 C 204.859375 131.199219 204.054688 133.101562 203.621094 135.019531 C 203.597656 135.105469 203.613281 135.195312 203.640625 135.273438 C 202.105469 135.847656 200.613281 136.523438 199.21875 137.398438 C 199.902344 135.914062 200.417969 134.347656 200.820312 132.753906 C 200.988281 132.085938 199.96875 131.800781 199.777344 132.46875 C 199.136719 134.789062 198.117188 136.964844 196.949219 139.058594 C 193.335938 142.089844 190.707031 146.34375 189.648438 150.941406 Z M 211.933594 114.300781 C 212.816406 113.367188 213.769531 112.5 214.800781 111.722656 C 211.597656 118.777344 211.773438 126.988281 207.835938 133.792969 C 207.8125 133.828125 207.800781 133.855469 207.785156 133.894531 C 206.726562 134.230469 205.660156 134.5625 204.609375 134.921875 C 205.332031 133.371094 205.835938 131.667969 206.410156 130.066406 C 207.078125 128.195312 207.734375 126.308594 208.402344 124.425781 C 209.589844 121.054688 210.765625 117.675781 211.933594 114.300781 Z M 216.71875 110.40625 C 216.84375 110.324219 216.972656 110.253906 217.097656 110.179688 C 220 108.460938 223.128906 107.621094 226.414062 107.035156 C 226.457031 107.019531 226.5 107.011719 226.539062 107.007812 C 225.378906 109.261719 224.589844 111.675781 224.222656 114.1875 C 224.039062 115.460938 223.953125 116.753906 223.972656 118.039062 C 224.003906 119.140625 224.035156 120.359375 224.347656 121.429688 C 222.117188 123.589844 220.351562 126.183594 218.179688 128.386719 C 215.667969 130.917969 212.625 132.320312 209.277344 133.417969 C 213.324219 126.394531 212.707031 117.625 216.664062 110.53125 C 216.6875 110.488281 216.703125 110.441406 216.71875 110.40625 Z M 227.574219 106.824219 C 228.390625 106.683594 229.203125 106.535156 230.011719 106.367188 C 228.917969 108.113281 228.109375 110.03125 227.640625 112.042969 C 227.207031 113.902344 226.832031 116.207031 227.273438 118.089844 C 227.398438 118.617188 228.15625 118.46875 228.183594 117.972656 C 228.242188 117 228.117188 116.03125 228.183594 115.054688 C 228.25 114.085938 228.398438 113.125 228.617188 112.175781 C 229.066406 110.273438 229.816406 108.46875 230.835938 106.800781 C 230.984375 106.566406 230.886719 106.335938 230.710938 106.210938 C 231.230469 106.09375 231.738281 105.964844 232.253906 105.816406 C 231.5625 107.511719 230.988281 109.261719 230.570312 111.050781 C 230.058594 113.25 229.566406 115.695312 229.675781 117.964844 C 229.507812 118.03125 229.335938 118.101562 229.167969 118.175781 C 227.785156 118.773438 226.523438 119.558594 225.371094 120.519531 C 225.273438 119.691406 225.136719 118.875 225.113281 118.039062 C 225.070312 116.824219 225.121094 115.605469 225.28125 114.402344 C 225.621094 111.925781 226.40625 109.519531 227.566406 107.308594 C 227.664062 107.128906 227.640625 106.960938 227.574219 106.824219 Z M 233.53125 105.398438 C 234.132812 105.183594 234.722656 104.933594 235.292969 104.648438 C 236.835938 103.871094 238.109375 102.714844 239.09375 101.304688 C 239.546875 100.660156 239.9375 99.984375 240.296875 99.285156 C 239.886719 101.09375 239.738281 103.03125 240.144531 104.847656 C 240.253906 105.351562 241.105469 105.257812 241.0625 104.722656 C 240.898438 102.828125 240.863281 101.042969 241.3125 99.183594 C 241.421875 98.734375 240.949219 98.480469 240.628906 98.617188 C 241.03125 97.804688 241.421875 96.972656 241.847656 96.171875 C 242.367188 95.175781 243.015625 94.269531 243.757812 93.460938 C 243.507812 94.167969 243.300781 94.878906 243.15625 95.613281 C 242.890625 96.914062 242.664062 98.363281 242.875 99.675781 C 242.890625 99.792969 242.941406 99.882812 243.015625 99.941406 C 242.640625 100.886719 242.296875 101.84375 241.964844 102.789062 C 240.296875 107.511719 238.710938 113.152344 234.191406 115.972656 C 233.082031 116.664062 231.855469 117.121094 230.636719 117.582031 C 230.738281 116.597656 230.769531 115.605469 230.910156 114.621094 C 231.054688 113.503906 231.269531 112.402344 231.535156 111.316406 C 232.019531 109.28125 232.6875 107.308594 233.53125 105.398438 Z M 174.582031 137.535156 C 174.65625 138.46875 174.714844 139.46875 174.972656 140.378906 C 171.402344 138.160156 167.609375 136.25 164.210938 133.792969 C 164.761719 132.234375 164.972656 130.449219 165.238281 128.847656 C 165.539062 127.050781 165.765625 125.234375 165.890625 123.421875 C 166.046875 121.21875 166.074219 119.007812 165.988281 116.804688 C 166.058594 116.941406 166.132812 117.089844 166.199219 117.230469 C 167.464844 119.636719 168.808594 122.039062 170.644531 124.066406 C 172.039062 125.617188 173.707031 126.785156 175.535156 127.71875 C 174.964844 129.847656 174.617188 132.035156 174.53125 134.238281 C 174.484375 135.339844 174.5 136.441406 174.582031 137.535156 Z M 165.046875 141.914062 C 163.652344 142.863281 162.1875 143.707031 160.675781 144.449219 C 157.6875 145.925781 154.5 146.945312 151.214844 147.539062 C 150.214844 146.753906 149.214844 145.945312 148.296875 145.078125 C 147.84375 144.644531 147.417969 144.191406 147.058594 143.707031 C 150.464844 144.351562 154 144.210938 157.339844 143.265625 C 159.039062 142.796875 160.683594 142.121094 162.226562 141.269531 C 163.710938 140.445312 165.472656 139.410156 166.546875 138.066406 C 166.675781 137.898438 166.675781 137.667969 166.597656 137.492188 C 167.375 137.960938 168.160156 138.417969 168.949219 138.875 C 167.660156 139.917969 166.421875 140.980469 165.046875 141.914062 Z M 146.453125 142.765625 C 146.144531 142.191406 145.910156 141.578125 145.785156 140.894531 C 145.460938 139.136719 145.625 137.324219 145.109375 135.589844 C 144.347656 132.984375 142.53125 130.890625 140.546875 129.105469 C 138.5 127.261719 136.222656 125.675781 134.261719 123.738281 C 131.859375 121.371094 130.34375 118.433594 129.433594 115.210938 C 128.949219 113.476562 128.589844 111.707031 128.332031 109.914062 C 130.316406 111.265625 132.601562 112.167969 134.980469 112.542969 C 137.324219 112.910156 140.144531 112.960938 142.378906 112.035156 C 143.0625 111.757812 142.816406 110.773438 142.070312 110.914062 C 140.894531 111.140625 139.785156 111.457031 138.585938 111.53125 C 137.40625 111.597656 136.214844 111.542969 135.054688 111.347656 C 132.734375 110.957031 130.550781 110.054688 128.625 108.703125 C 128.464844 108.585938 128.304688 108.570312 128.164062 108.628906 C 127.941406 106.726562 127.824219 104.808594 127.789062 102.921875 C 127.707031 98.898438 127.980469 94.792969 128.707031 90.824219 C 129.449219 96.144531 131.820312 101.121094 135.589844 105 C 137.648438 107.117188 140.109375 108.695312 142.5625 110.3125 C 145.09375 111.992188 147.359375 113.851562 149.136719 116.339844 C 152.410156 120.9375 154.316406 126.394531 158.046875 130.699219 C 160.359375 133.359375 163.179688 135.398438 166.15625 137.226562 C 166.089844 137.234375 166.023438 137.257812 165.957031 137.308594 C 165.273438 137.75 164.6875 138.324219 164.03125 138.800781 C 163.335938 139.300781 162.617188 139.753906 161.867188 140.171875 C 160.375 141.003906 158.789062 141.640625 157.148438 142.105469 C 153.867188 143.023438 150.390625 143.199219 147.050781 142.53125 C 146.785156 142.480469 146.578125 142.589844 146.453125 142.765625 Z M 139.242188 102.054688 C 141.421875 103.445312 143.882812 104.371094 146.460938 104.625 C 149.65625 104.941406 152.96875 104.1875 156.070312 105.25 C 156.960938 105.558594 157.765625 105.976562 158.515625 106.476562 C 158.457031 106.585938 158.433594 106.710938 158.496094 106.851562 C 159.941406 110.355469 160.941406 114.09375 161.359375 117.855469 C 161.792969 121.652344 161.492188 125.46875 160.769531 129.214844 C 160.660156 129.789062 161.527344 130.039062 161.652344 129.457031 C 163.277344 122.273438 162.636719 114.476562 159.949219 107.621094 C 162.058594 109.570312 163.597656 112.234375 164.957031 114.820312 C 165.128906 117.632812 165.113281 120.453125 164.898438 123.265625 C 164.761719 125.09375 164.5625 126.917969 164.269531 128.730469 C 164.027344 130.207031 163.605469 131.675781 163.351562 133.152344 C 162.804688 132.742188 162.277344 132.308594 161.761719 131.859375 C 159.582031 129.949219 157.847656 127.71875 156.363281 125.234375 C 154.894531 122.789062 153.617188 120.242188 152.109375 117.808594 C 150.632812 115.4375 148.902344 113.191406 146.703125 111.441406 C 144.332031 109.554688 141.621094 108.171875 139.183594 106.382812 C 134.589844 103.019531 131.269531 97.898438 129.984375 92.347656 C 132.519531 96.0625 135.441406 99.625 139.242188 102.054688 Z M 251.402344 88.996094 C 251.316406 88.804688 251.132812 88.667969 250.84375 88.679688 C 247.460938 88.886719 244.234375 90.464844 242.097656 93.117188 C 239.921875 95.820312 239.253906 99.492188 236.824219 101.988281 C 235.859375 102.972656 234.714844 103.699219 233.480469 104.25 C 233.257812 104.125 232.972656 104.148438 232.839844 104.441406 C 232.828125 104.472656 232.8125 104.5 232.796875 104.539062 C 231.335938 105.105469 229.761719 105.457031 228.226562 105.726562 C 224.921875 106.308594 221.617188 106.734375 218.503906 108.046875 C 215.3125 109.394531 212.441406 111.390625 210.113281 113.960938 C 208.027344 116.265625 206.453125 118.992188 204.957031 121.703125 C 203.5 124.308594 202.089844 127.203125 200.019531 129.382812 C 198.992188 130.480469 197.816406 131.417969 196.472656 132.109375 C 194.886719 132.933594 193.121094 133.335938 191.558594 134.222656 C 191.125 134.472656 190.71875 134.753906 190.359375 135.0625 C 188.796875 130.851562 183.910156 129.222656 180.070312 127.753906 C 177.9375 126.945312 175.773438 126.101562 173.914062 124.757812 C 171.652344 123.121094 170.054688 120.746094 168.703125 118.347656 C 167.675781 116.523438 166.730469 114.601562 165.691406 112.742188 C 165.679688 112.601562 165.671875 112.457031 165.648438 112.316406 C 165.628906 112.058594 165.414062 111.910156 165.207031 111.890625 C 163.71875 109.339844 161.984375 106.976562 159.507812 105.242188 C 157.078125 103.523438 154.285156 103.054688 151.363281 103.105469 C 148.351562 103.15625 145.46875 103.304688 142.605469 102.195312 C 136.917969 100 132.921875 94.625 129.667969 89.71875 C 129.484375 89.445312 129.191406 89.394531 128.949219 89.488281 C 128.949219 88.804688 127.898438 88.558594 127.722656 89.296875 C 125.945312 96.964844 125.613281 104.847656 127.089844 112.609375 C 127.746094 116.046875 128.839844 119.527344 130.894531 122.40625 C 132.613281 124.800781 134.914062 126.621094 137.183594 128.460938 C 139.292969 130.175781 141.53125 131.960938 142.847656 134.402344 C 144.484375 137.417969 143.40625 141.089844 145.292969 144.015625 C 146.199219 145.425781 147.476562 146.527344 148.753906 147.582031 C 150.097656 148.691406 151.441406 149.789062 152.84375 150.808594 C 155.679688 152.871094 158.789062 154.472656 162.285156 154.988281 C 165.890625 155.515625 169.527344 155.148438 173.148438 155.113281 C 176.703125 155.074219 180.304688 155.421875 183.25 157.585938 C 184.074219 158.195312 184.84375 156.832031 184.042969 156.222656 C 178.902344 152.328125 171.972656 153.65625 165.980469 153.578125 C 162.878906 153.53125 159.976562 152.996094 157.222656 151.625 C 160.007812 150.707031 162.695312 149.492188 165.195312 147.957031 C 166.523438 147.128906 167.808594 146.226562 169.035156 145.25 C 170.277344 144.265625 171.5625 143.222656 172.53125 141.945312 C 172.988281 141.339844 172.0625 140.804688 171.5625 141.203125 C 170.386719 142.140625 169.351562 143.257812 168.183594 144.210938 C 166.992188 145.195312 165.738281 146.09375 164.429688 146.910156 C 161.835938 148.539062 159.074219 149.867188 156.164062 150.84375 C 156.097656 150.867188 156.039062 150.902344 155.996094 150.941406 C 154.753906 150.214844 153.578125 149.367188 152.441406 148.496094 C 155.503906 147.871094 158.472656 146.855469 161.285156 145.484375 C 164.355469 143.976562 167.523438 142.023438 169.917969 139.550781 C 169.945312 139.519531 169.96875 139.496094 169.992188 139.46875 C 170.851562 139.953125 171.710938 140.445312 172.5625 140.929688 C 178.011719 144.082031 183.566406 147.90625 185.945312 153.996094 C 186.253906 154.789062 187.53125 154.480469 187.261719 153.636719 C 185.902344 149.5 182.957031 146.238281 179.585938 143.574219 C 178.785156 139.21875 178.730469 134.753906 179.511719 130.390625 C 179.636719 129.699219 178.585938 129.398438 178.453125 130.097656 C 177.660156 134.210938 177.554688 138.402344 178.195312 142.53125 C 177.652344 142.140625 177.109375 141.761719 176.566406 141.398438 C 176.375 141.273438 176.191406 141.148438 176 141.023438 C 176.078125 140.945312 176.132812 140.828125 176.132812 140.664062 C 176.125 139.621094 175.890625 138.578125 175.808594 137.535156 C 175.726562 136.492188 175.707031 135.4375 175.742188 134.386719 C 175.808594 132.308594 176.125 130.257812 176.644531 128.246094 C 178.988281 129.296875 181.464844 130.058594 183.777344 131.175781 C 186.019531 132.261719 187.804688 133.695312 189.066406 135.855469 C 189.140625 135.980469 189.238281 136.058594 189.339844 136.121094 C 187.855469 137.976562 187.246094 140.445312 187.207031 142.890625 C 187.148438 147.394531 188.941406 151.683594 188.613281 156.207031 C 188.566406 156.792969 189.164062 156.941406 189.558594 156.707031 C 189.867188 156.777344 190.242188 156.609375 190.242188 156.191406 C 190.222656 152.8125 191.042969 149.472656 192.578125 146.503906 C 192.453125 146.929688 192.761719 147.460938 193.277344 147.253906 C 195.0625 146.5625 196.890625 146.871094 198.59375 147.65625 C 199.402344 148.03125 200.167969 148.496094 200.910156 148.988281 C 201.121094 149.140625 201.335938 149.300781 201.546875 149.464844 C 198.367188 151.359375 195.640625 153.894531 192.96875 156.425781 C 192.503906 156.867188 193.195312 157.550781 193.660156 157.125 C 196.265625 154.773438 198.910156 152.378906 201.902344 150.515625 C 202.089844 150.398438 202.273438 150.285156 202.464844 150.167969 C 202.730469 150.359375 203.003906 150.535156 203.28125 150.675781 C 203.847656 150.953125 204.296875 150.308594 203.929688 149.847656 C 203.839844 149.734375 203.746094 149.632812 203.648438 149.539062 C 206.382812 148.164062 209.277344 147.480469 212.425781 147.429688 C 215.878906 147.371094 219.257812 147.5625 222.660156 146.84375 C 225.546875 146.226562 228.324219 145.175781 230.917969 143.78125 C 236.125 140.980469 240.5625 136.78125 243.640625 131.734375 C 247.054688 126.125 248.148438 119.785156 248.398438 113.316406 C 248.699219 105.535156 248.082031 97.207031 251.824219 90.089844 C 252.070312 89.613281 251.785156 89.167969 251.402344 88.996094 " fill-opacity="1" fill-rule="nonzero"/><path fill="#1ca389" d="M 145.632812 118.824219 C 142.386719 120.636719 138.820312 121.546875 135.097656 121.136719 C 134.347656 121.054688 134.371094 122.214844 135.097656 122.3125 C 138.941406 122.804688 143.023438 122.070312 146.308594 119.96875 C 147.027344 119.511719 146.386719 118.40625 145.632812 118.824219 " fill-opacity="1" fill-rule="nonzero"/><path fill="#60c0c4" d="M 278.53125 245.5 C 278.53125 294.496094 238.8125 334.207031 189.808594 334.207031 C 140.8125 334.207031 101.085938 294.496094 101.085938 245.5 C 101.085938 196.511719 140.8125 156.792969 189.808594 156.792969 C 238.8125 156.792969 278.53125 196.511719 278.53125 245.5 " fill-opacity="1" fill-rule="nonzero"/><path fill="#6cd8d8" d="M 273.984375 244.808594 C 273.984375 290.089844 236.183594 326.796875 189.558594 326.796875 C 142.9375 326.796875 105.140625 290.089844 105.140625 244.808594 C 105.140625 199.539062 142.9375 162.832031 189.558594 162.832031 C 236.183594 162.832031 273.984375 199.539062 273.984375 244.808594 " fill-opacity="1" fill-rule="nonzero"/><path fill="#7bc13e" d="M 235.226562 169.625 C 228.492188 171.996094 222.628906 186.070312 213.527344 185.671875 C 202.820312 185.210938 195.765625 199.382812 190.640625 193.796875 C 185.519531 188.207031 179.164062 186.324219 177.878906 191.09375 C 176.601562 195.867188 176.902344 213.589844 169.125 219.683594 C 161.34375 225.78125 181.53125 242.761719 189.964844 246.34375 C 198.398438 249.929688 206.800781 254.050781 212.898438 261.828125 C 219 269.605469 240.539062 255.519531 250.015625 259.683594 C 257.976562 263.183594 271.113281 260.855469 277.519531 255.996094 C 277.570312 255.214844 277.53125 254.421875 277.644531 253.644531 C 281.835938 224.605469 265.351562 188.082031 235.226562 169.625 " fill-opacity="1" fill-rule="nonzero"/><path fill="#7bc13e" d="M 232.773438 265.085938 C 225.632812 268.144531 214.636719 267.753906 216.769531 274.15625 C 218.898438 280.554688 229.570312 284.828125 227.96875 296.03125 C 226.375 307.230469 229.570312 316.835938 239.179688 307.230469 C 248.78125 297.628906 256.78125 289.097656 256.78125 274.695312 C 256.78125 260.285156 236.515625 263.488281 232.773438 265.085938 " fill-opacity="1" fill-rule="nonzero"/><path fill="#7bc13e" d="M 101.402344 237.949219 C 106.609375 241.378906 114.808594 241.855469 116.410156 243.773438 C 118.878906 246.734375 121.847656 245.25 125.304688 250.683594 C 128.765625 256.128906 116.902344 263.539062 114.925781 272.925781 C 112.949219 282.316406 126.789062 297.140625 133.710938 304.554688 C 140.628906 311.96875 163.363281 318.886719 166.332031 318.886719 C 169.300781 318.886719 169.300781 314.933594 164.355469 304.554688 C 159.414062 294.179688 164.847656 278.859375 164.847656 268.972656 C 164.847656 259.085938 144.089844 255.628906 140.136719 254.152344 C 136.179688 252.667969 138.152344 248.21875 143.097656 240.808594 C 148.042969 233.394531 160.894531 230.921875 162.378906 222.519531 C 163.863281 214.117188 147.550781 187.925781 159.90625 179.523438 C 170.894531 172.054688 161.953125 166.929688 156.019531 163.457031 C 125.988281 175.832031 104.253906 204.203125 101.402344 237.949219 " fill-opacity="1" fill-rule="nonzero"/><path fill="#1c8d40" d="M 235.25 169.535156 C 229.761719 170.976562 226.855469 176.519531 223.09375 180.28125 C 220.867188 182.5 218.496094 184.085938 215.445312 184.910156 C 212.015625 185.820312 208.292969 185.839844 205.183594 187.714844 C 202.089844 189.585938 199.9375 192.613281 196.347656 193.648438 C 195.753906 193.816406 195.757812 194.851562 196.449219 194.792969 C 199.542969 194.535156 201.738281 191.996094 203.914062 190.050781 C 205.292969 188.816406 206.742188 187.859375 208.542969 187.355469 C 210.40625 186.839844 212.332031 186.875 214.234375 186.621094 C 217.394531 186.207031 220.117188 185.128906 222.394531 182.84375 C 224.386719 180.847656 225.9375 178.445312 227.699219 176.242188 C 229.761719 173.65625 232.164062 171.242188 235.40625 170.21875 C 235.824219 170.078125 235.691406 169.417969 235.25 169.535156 " fill-opacity="1" fill-rule="nonzero"/><path fill="#1c8d40" d="M 215.160156 262.113281 C 211.972656 259.085938 208.613281 256.253906 205.242188 253.433594 C 203.699219 252.152344 202.214844 250.800781 200.453125 249.820312 C 198.765625 248.886719 196.914062 248.21875 195.097656 247.585938 C 188.332031 245.222656 181.941406 241.628906 176.925781 236.460938 C 174.449219 233.902344 172.246094 231.054688 170.4375 227.984375 C 169.386719 226.191406 168.410156 224.148438 168.960938 222.019531 C 169.433594 220.199219 170.6875 218.796875 171.886719 217.40625 C 176.734375 211.820312 178.429688 203.863281 178.410156 196.617188 C 178.402344 194.472656 178.460938 192.113281 179.8125 190.328125 C 181.238281 188.449219 183.324219 187.898438 185.292969 189.386719 C 188.046875 191.480469 189.722656 196.386719 193.953125 195.492188 C 194.289062 195.425781 194.171875 194.917969 193.835938 194.96875 C 189.675781 195.675781 187.988281 189.753906 184.84375 188.140625 C 181.933594 186.648438 178.847656 188.566406 177.660156 191.320312 C 176.058594 195.050781 177.234375 199.40625 176.675781 203.328125 C 176.078125 207.484375 174.605469 211.304688 172.144531 214.710938 C 170.121094 217.523438 167.199219 220.417969 167.667969 224.1875 C 167.910156 226.089844 168.886719 227.820312 169.871094 229.429688 C 170.796875 230.941406 171.8125 232.414062 172.914062 233.808594 C 177.4375 239.515625 183.367188 244.425781 189.992188 247.492188 C 191.941406 248.394531 193.929688 249.113281 195.980469 249.714844 C 198.351562 250.414062 200.417969 251.347656 202.355469 252.894531 C 204.433594 254.554688 206.34375 256.441406 208.34375 258.199219 C 210.28125 259.902344 212.242188 261.570312 214.269531 263.179688 C 214.886719 263.664062 215.734375 262.664062 215.160156 262.113281 " fill-opacity="1" fill-rule="nonzero"/><path fill="#1c8d40" d="M 275.101562 256.355469 C 271.683594 257.992188 268.363281 259.359375 264.597656 259.910156 C 260.785156 260.476562 256.921875 260.226562 253.234375 259.085938 C 251.332031 258.492188 249.449219 257.789062 247.460938 257.539062 C 245.445312 257.28125 243.410156 257.425781 241.414062 257.773438 C 237.46875 258.449219 233.714844 259.785156 230.078125 261.429688 C 226.546875 263.03125 221.144531 266.476562 217.628906 263.007812 C 217.214844 262.597656 216.546875 263.207031 216.964844 263.617188 C 219.582031 266.1875 223.246094 265.324219 226.238281 263.972656 C 228.265625 263.054688 230.226562 262.082031 232.339844 261.378906 C 234.390625 260.695312 236.453125 260.152344 238.5625 259.695312 C 240.804688 259.210938 243.082031 258.851562 245.378906 258.890625 C 247.671875 258.917969 249.867188 259.503906 252.066406 260.101562 C 255.863281 261.128906 259.726562 261.738281 263.671875 261.445312 C 267.8125 261.144531 272.308594 260.019531 275.785156 257.65625 C 276.546875 257.132812 275.976562 255.9375 275.101562 256.355469 " fill-opacity="1" fill-rule="nonzero"/><path fill="#1c8d40" d="M 258.082031 272.9375 C 257.839844 270.949219 256.707031 269.128906 255.378906 267.671875 C 252.191406 264.164062 247.546875 262.488281 242.867188 262.605469 C 237.609375 262.738281 232.628906 264.714844 227.824219 266.667969 C 227.191406 266.929688 227.464844 267.972656 228.109375 267.71875 C 235.273438 264.839844 244.417969 261.496094 251.535156 266.269531 C 253.117188 267.335938 254.46875 268.789062 255.445312 270.417969 C 256.648438 272.417969 256.707031 274.421875 256.191406 276.664062 C 255.246094 280.730469 254.179688 284.808594 252.417969 288.597656 C 250.625 292.445312 247.972656 295.523438 245.136719 298.621094 C 243.632812 300.273438 242.148438 301.941406 240.664062 303.617188 C 239.371094 305.0625 238.09375 306.648438 236.46875 307.742188 C 235.03125 308.714844 233.179688 309.316406 231.46875 308.773438 C 229.527344 308.164062 228.777344 306.195312 228.359375 304.386719 C 227.847656 302.167969 227.765625 299.777344 227.824219 297.507812 C 227.847656 296.410156 227.925781 295.324219 228.117188 294.246094 C 228.300781 293.203125 228.625 292.167969 228.710938 291.109375 C 228.890625 289.015625 227.675781 287.554688 226.25 286.1875 C 224.40625 284.425781 222.792969 282.449219 221.144531 280.511719 C 219.699219 278.800781 217.796875 277.035156 217.039062 274.886719 C 216.414062 273.109375 216.921875 270.617188 219.023438 270.175781 C 219.582031 270.058594 219.339844 269.230469 218.789062 269.324219 C 217.289062 269.582031 216.269531 270.800781 215.878906 272.226562 C 215.425781 273.886719 215.980469 275.546875 216.894531 276.949219 C 218.113281 278.84375 219.847656 280.429688 221.375 282.074219 C 223.128906 283.960938 224.957031 285.851562 226.390625 288.007812 C 227.78125 290.109375 226.988281 292.527344 226.839844 294.882812 C 226.683594 297.460938 226.613281 299.980469 226.933594 302.542969 C 227.183594 304.484375 227.214844 306.761719 228.316406 308.449219 C 229.308594 309.953125 231.113281 310.683594 232.871094 310.695312 C 237.308594 310.742188 240.203125 306.695312 242.792969 303.675781 C 245.859375 300.089844 249.179688 296.523438 251.699219 292.519531 C 254.152344 288.632812 255.472656 284.207031 256.808594 279.851562 C 257.484375 277.640625 258.359375 275.28125 258.082031 272.9375 " fill-opacity="1" fill-rule="nonzero"/><path fill="#1c8d40" d="M 167.898438 311.121094 C 167.109375 309.71875 165.949219 308.375 165.738281 306.738281 C 165.523438 305.019531 166.242188 303.394531 165.863281 301.648438 C 165.515625 300.078125 164.65625 298.671875 163.988281 297.226562 C 163.210938 295.53125 162.820312 293.707031 162.769531 291.851562 C 162.667969 288.082031 163.730469 284.433594 164.65625 280.820312 C 166.238281 274.605469 167.351562 267.105469 162.246094 262.136719 C 161.269531 261.179688 160.109375 260.429688 158.824219 259.96875 C 157.246094 259.402344 155.542969 259.625 153.953125 259.132812 C 152.332031 258.617188 151.414062 257.105469 150.097656 256.132812 C 149.089844 255.394531 147.894531 254.96875 146.691406 254.6875 C 144.375 254.160156 141.222656 254.167969 139.367188 252.492188 C 136.539062 249.957031 138.984375 245.96875 140.96875 243.824219 C 143.515625 241.054688 146.203125 238.355469 148.929688 235.753906 C 151.464844 233.351562 154.183594 231.507812 157.195312 229.769531 C 159.515625 228.425781 161.878906 226.800781 162.785156 224.148438 C 163.878906 220.953125 162.535156 217.105469 161.675781 214 C 161.234375 212.421875 160.683594 210.855469 159.882812 209.417969 C 159.050781 207.910156 157.773438 206.65625 157.03125 205.121094 C 156.210938 203.417969 156.945312 201.640625 157.1875 199.890625 C 157.40625 198.3125 157.230469 196.734375 156.945312 195.175781 C 156.363281 191.964844 155.054688 188.292969 156.8125 185.222656 C 158.289062 182.625 161.101562 181.175781 162.828125 178.769531 C 165.738281 174.714844 164.421875 168.789062 160.726562 165.679688 C 159.847656 164.929688 158.839844 164.386719 157.738281 164.027344 C 157.164062 163.84375 156.929688 164.734375 157.496094 164.925781 C 162.3125 166.605469 164.570312 173.046875 161.902344 177.402344 C 160.402344 179.847656 157.832031 181.457031 156.238281 183.851562 C 154.550781 186.371094 154.683594 189.234375 155.152344 192.105469 C 155.421875 193.742188 155.804688 195.375 155.929688 197.035156 C 156.070312 198.824219 155.652344 200.355469 155.253906 202.078125 C 154.894531 203.628906 155.011719 205.015625 155.820312 206.40625 C 156.652344 207.800781 157.882812 208.902344 158.671875 210.328125 C 159.523438 211.882812 160.066406 213.574219 160.515625 215.269531 C 160.984375 217.039062 161.46875 218.875 161.601562 220.699219 C 161.859375 224.136719 159.90625 226.222656 157.128906 227.875 C 154.425781 229.472656 151.722656 230.871094 149.328125 232.941406 C 146.558594 235.34375 144.050781 238.058594 141.488281 240.667969 C 139.292969 242.90625 136.847656 245.257812 136.414062 248.527344 C 136.058594 251.183594 137.28125 253.675781 139.761719 254.789062 C 142.121094 255.847656 144.78125 255.578125 147.242188 256.265625 C 148.710938 256.671875 149.730469 257.457031 150.796875 258.515625 C 151.867188 259.59375 152.890625 260.445312 154.402344 260.820312 C 155.921875 261.203125 157.511719 261.222656 158.921875 261.972656 C 160.148438 262.628906 161.175781 263.617188 161.953125 264.773438 C 163.722656 267.378906 164.222656 270.5 164.027344 273.605469 C 163.570312 280.789062 159.859375 287.679688 161.492188 294.972656 C 162.226562 298.269531 164.820312 300.949219 164.296875 304.460938 C 164.070312 306.003906 164.054688 307.332031 164.707031 308.78125 C 165.339844 310.167969 166.390625 311.351562 166.933594 312.769531 C 167.375 313.914062 167.59375 315.632812 166.441406 316.441406 C 165.628906 317.011719 166.390625 318.363281 167.234375 317.792969 C 169.511719 316.257812 169.070312 313.230469 167.898438 311.121094 " fill-opacity="1" fill-rule="nonzero"/><path fill="#1c8d40" d="M 165.871094 318.914062 C 161.792969 317.4375 157.582031 316.367188 153.515625 314.875 C 149.472656 313.390625 145.609375 311.527344 141.945312 309.273438 C 138.285156 307.007812 134.863281 304.445312 131.820312 301.40625 C 130.292969 299.878906 128.898438 298.246094 127.554688 296.558594 C 126.171875 294.816406 124.710938 293.035156 123.699219 291.035156 C 121.742188 287.171875 119.378906 283.515625 117.363281 279.679688 C 116.285156 277.632812 115.367188 275.347656 115.425781 272.996094 C 115.484375 270.882812 116.402344 268.824219 117.628906 267.136719 C 120.070312 263.75 123.835938 261.554688 125.921875 257.867188 C 127.515625 255.039062 127.78125 251.199219 125.664062 248.546875 C 124.386719 246.953125 122.515625 246.492188 120.714844 245.734375 C 119.65625 245.285156 118.914062 244.699219 118.320312 243.714844 C 117.804688 242.871094 117.304688 242.003906 116.417969 241.503906 C 114.597656 240.460938 112.097656 241.226562 110.113281 240.953125 C 107.59375 240.609375 105.15625 239.390625 103.238281 237.746094 C 102.945312 237.496094 102.527344 237.90625 102.8125 238.175781 C 104.207031 239.515625 105.78125 240.550781 107.59375 241.246094 C 109.496094 241.96875 111.40625 242.136719 113.40625 242.296875 C 114.535156 242.386719 115.59375 242.636719 116.269531 243.621094 C 116.792969 244.382812 117.101562 245.257812 117.753906 245.933594 C 119.023438 247.253906 120.871094 247.585938 122.46875 248.320312 C 126.222656 250.039062 126.003906 254.746094 124.269531 257.890625 C 122.25 261.554688 118.753906 264.148438 116.234375 267.445312 C 115.050781 269.003906 114.167969 270.75 113.933594 272.710938 C 113.675781 274.832031 114.207031 276.898438 115.035156 278.835938 C 116.777344 282.898438 119.40625 286.578125 121.867188 290.21875 C 123.085938 292.019531 124.375 293.773438 125.601562 295.574219 C 126.804688 297.351562 128.097656 299.0625 129.457031 300.730469 C 132.160156 304.050781 135.214844 307.003906 138.761719 309.410156 C 142.671875 312.054688 147.058594 313.921875 151.449219 315.601562 C 156.035156 317.34375 160.742188 319.0625 165.507812 320.214844 C 166.363281 320.421875 166.675781 319.207031 165.871094 318.914062 " fill-opacity="1" fill-rule="nonzero"/><path fill="#1c8d40" d="M 262.722656 209.6875 C 261.789062 210.761719 260.804688 211.804688 259.992188 212.980469 C 259.652344 213.464844 260.386719 213.984375 260.792969 213.597656 C 261.789062 212.648438 262.644531 211.539062 263.523438 210.488281 C 263.996094 209.9375 263.199219 209.128906 262.722656 209.6875 " fill-opacity="1" fill-rule="nonzero"/><path fill="#1c8d40" d="M 265.882812 212.257812 C 264.78125 213.757812 263.546875 215.160156 262.460938 216.671875 C 262.164062 217.097656 262.855469 217.496094 263.15625 217.078125 C 264.230469 215.570312 265.140625 213.964844 266.183594 212.433594 C 266.316406 212.25 266.015625 212.082031 265.882812 212.257812 " fill-opacity="1" fill-rule="nonzero"/><path fill="#1c8d40" d="M 266.574219 217.261719 C 266.082031 217.996094 265.597656 218.722656 265.105469 219.449219 C 264.65625 220.125 264.148438 220.757812 263.929688 221.550781 C 263.8125 221.96875 264.316406 222.210938 264.617188 221.953125 C 265.242188 221.417969 265.601562 220.683594 266.023438 219.992188 C 266.484375 219.242188 266.941406 218.496094 267.394531 217.746094 C 267.71875 217.214844 266.910156 216.753906 266.574219 217.261719 " fill-opacity="1" fill-rule="nonzero"/><path fill="#1c8d40" d="M 267.753906 222.703125 C 267.109375 223.5625 266.433594 224.40625 265.851562 225.304688 C 265.492188 225.855469 266.335938 226.53125 266.769531 226.015625 C 267.503906 225.164062 268.160156 224.230469 268.835938 223.328125 C 269.304688 222.6875 268.234375 222.070312 267.753906 222.703125 " fill-opacity="1" fill-rule="nonzero"/><path fill="#1c8d40" d="M 267.992188 230.371094 C 267.792969 230.164062 267.441406 230.164062 267.234375 230.371094 L 266.265625 231.339844 C 266.066406 231.546875 266.066406 231.890625 266.265625 232.097656 C 266.46875 232.300781 266.816406 232.300781 267.019531 232.097656 L 267.992188 231.125 C 268.195312 230.921875 268.195312 230.574219 267.992188 230.371094 " fill-opacity="1" fill-rule="nonzero"/><path fill="#1c8d40" d="M 127.890625 277.234375 C 127.003906 278.125 126.21875 279.179688 125.8125 280.378906 C 125.613281 280.953125 126.511719 281.332031 126.789062 280.789062 C 127.3125 279.777344 127.847656 278.828125 128.65625 278 C 129.140625 277.507812 128.382812 276.742188 127.890625 277.234375 " fill-opacity="1" fill-rule="nonzero"/><path fill="#1c8d40" d="M 132.453125 279.855469 C 131.433594 280.914062 130.527344 282.089844 129.808594 283.375 C 129.164062 284.550781 128.441406 285.9375 128.40625 287.304688 C 128.398438 287.765625 129.058594 287.949219 129.289062 287.539062 C 129.910156 286.402344 130.207031 285.117188 130.808594 283.960938 C 131.453125 282.730469 132.253906 281.613281 133.179688 280.585938 C 133.628906 280.101562 132.917969 279.371094 132.453125 279.855469 " fill-opacity="1" fill-rule="nonzero"/><path fill="#1c8d40" d="M 134.695312 283.75 C 133.820312 286.421875 132.300781 289.273438 132.351562 292.152344 C 132.351562 292.601562 132.9375 292.628906 133.09375 292.246094 C 133.621094 290.941406 133.769531 289.425781 134.027344 288.039062 C 134.289062 286.628906 134.496094 285.183594 134.898438 283.800781 C 134.9375 283.675781 134.738281 283.625 134.695312 283.75 " fill-opacity="1" fill-rule="nonzero"/><path fill="#1c8d40" d="M 138.867188 287.722656 C 137.816406 290.09375 136.933594 293.277344 137.683594 295.867188 C 137.839844 296.40625 138.601562 296.273438 138.632812 295.734375 C 138.703125 294.503906 138.574219 293.277344 138.726562 292.042969 C 138.882812 290.726562 139.242188 289.457031 139.753906 288.238281 C 140.003906 287.640625 139.136719 287.113281 138.867188 287.722656 " fill-opacity="1" fill-rule="nonzero"/><path fill="#1c8d40" d="M 142.679688 293.503906 C 141.929688 295.25 141.570312 297.285156 142.304688 299.09375 C 142.480469 299.519531 143.238281 299.53125 143.191406 298.976562 C 143.046875 297.203125 143.023438 295.609375 143.730469 293.945312 C 143.980469 293.347656 142.9375 292.902344 142.679688 293.503906 " fill-opacity="1" fill-rule="nonzero"/><path fill="#1c8d40" d="M 149.070312 301.28125 C 148.488281 300.171875 148.371094 298.976562 148.820312 297.792969 C 149.054688 297.160156 148.046875 296.894531 147.804688 297.519531 C 147.253906 298.921875 147.367188 300.515625 148.230469 301.78125 C 148.585938 302.292969 149.363281 301.847656 149.070312 301.28125 " fill-opacity="1" fill-rule="nonzero"/><path fill="#1c8d40" d="M 239.894531 298.410156 C 239.488281 297.878906 239.121094 297.382812 239.136719 296.691406 C 239.152344 295.925781 237.96875 295.925781 237.953125 296.691406 C 237.929688 297.609375 238.328125 298.679688 239.210938 299.09375 C 239.597656 299.285156 240.230469 298.851562 239.894531 298.410156 " fill-opacity="1" fill-rule="nonzero"/><path fill="#1c8d40" d="M 242.398438 295.296875 C 241.964844 295.300781 241.589844 294.738281 241.816406 294.355469 C 242.007812 294.03125 241.554688 293.65625 241.289062 293.945312 C 240.914062 294.371094 240.882812 294.933594 241.121094 295.441406 C 241.382812 295.992188 241.925781 296.242188 242.515625 296.15625 C 243.007812 296.074219 242.882812 295.296875 242.398438 295.296875 " fill-opacity="1" fill-rule="nonzero"/><path fill="#1c8d40" d="M 245.761719 292.535156 C 245.628906 292.296875 245.484375 292.101562 245.292969 291.910156 L 244.777344 291.394531 C 244.550781 291.167969 244.140625 291.152344 243.910156 291.394531 C 243.691406 291.636719 243.660156 292.027344 243.910156 292.269531 C 244.085938 292.429688 244.257812 292.601562 244.433594 292.761719 C 244.632812 292.960938 244.828125 293.09375 245.070312 293.222656 C 245.503906 293.464844 246.019531 292.972656 245.761719 292.535156 " fill-opacity="1" fill-rule="nonzero"/><path fill="#1c8d40" d="M 247.847656 289.664062 C 247.738281 289.425781 247.503906 289.257812 247.289062 289.109375 C 247.097656 288.972656 246.90625 288.832031 246.71875 288.699219 C 246.585938 288.605469 246.378906 288.664062 246.285156 288.789062 C 246.179688 288.925781 246.203125 289.089844 246.3125 289.222656 C 246.453125 289.398438 246.597656 289.582031 246.738281 289.765625 C 246.886719 289.941406 247.054688 290.148438 247.277344 290.242188 C 247.65625 290.410156 248.054688 290.066406 247.847656 289.664062 " fill-opacity="1" fill-rule="nonzero"/><path fill="#1c8d40" d="M 249.054688 286.527344 C 249.039062 286.488281 249.023438 286.460938 249.015625 286.421875 C 248.972656 286.292969 248.921875 286.195312 248.824219 286.09375 C 248.765625 286.035156 248.707031 285.976562 248.648438 285.917969 C 248.539062 285.800781 248.371094 285.734375 248.214844 285.734375 C 248.070312 285.734375 247.890625 285.800781 247.78125 285.917969 C 247.679688 286.027344 247.597656 286.179688 247.605469 286.34375 C 247.613281 286.503906 247.664062 286.664062 247.78125 286.777344 C 247.847656 286.835938 247.90625 286.894531 247.964844 286.953125 C 248.0625 287.039062 248.15625 287.097656 248.28125 287.144531 C 248.320312 287.15625 248.363281 287.164062 248.398438 287.179688 C 248.773438 287.296875 249.171875 286.90625 249.054688 286.527344 " fill-opacity="1" fill-rule="nonzero"/><path fill="#b28542" d="M 130.84375 117.5 L 60.921875 339.523438 L 67.53125 339.523438 L 133.679688 123.164062 L 130.84375 117.5 " fill-opacity="1" fill-rule="nonzero"/><path fill="#b28542" d="M 147.859375 125.058594 L 109.117188 339.523438 L 115.726562 339.523438 L 153.527344 126.007812 L 147.859375 125.058594 " fill-opacity="1" fill-rule="nonzero"/><path fill="#b28542" d="M 117.613281 143.007812 L 152.109375 150.097656 L 151.164062 153.402344 L 116.195312 147.730469 L 117.613281 143.007812 " fill-opacity="1" fill-rule="nonzero"/><path fill="#b28542" d="M 108.636719 176.074219 L 145.960938 181.742188 L 145.492188 184.578125 L 107.21875 181.273438 L 108.636719 176.074219 " fill-opacity="1" fill-rule="nonzero"/><path fill="#b28542" d="M 100.132812 205.363281 L 140.292969 212.921875 L 138.882812 217.171875 L 98.246094 210.085938 L 100.132812 205.363281 " fill-opacity="1" fill-rule="nonzero"/><path fill="#b28542" d="M 91.632812 231.339844 L 134.628906 242.679688 L 134.148438 246.460938 L 90.683594 237.957031 L 91.632812 231.339844 " fill-opacity="1" fill-rule="nonzero"/><path fill="#b28542" d="M 84.074219 255.4375 L 130.375 268.195312 L 129.425781 271.96875 L 83.125 261.578125 L 84.074219 255.4375 " fill-opacity="1" fill-rule="nonzero"/><path fill="#b28542" d="M 75.089844 283.777344 L 127.554688 296.558594 L 125.652344 300.3125 L 72.730469 293.703125 L 75.089844 283.777344 " fill-opacity="1" fill-rule="nonzero"/><path fill="#f4b88e" d="M 181.539062 33.695312 C 181.363281 39.386719 178.554688 60.15625 172.144531 61.835938 C 165.730469 63.519531 157.457031 55.351562 157.128906 49.976562 C 156.804688 44.601562 157.480469 33.386719 163.269531 26.929688 C 169.066406 20.472656 181.664062 29.660156 181.539062 33.695312 " fill-opacity="1" fill-rule="nonzero"/><path fill="#313749" d="M 103.445312 144.425781 C 103.445312 144.425781 100.609375 151.035156 98.714844 160.957031 C 96.828125 170.878906 95.878906 258.273438 95.878906 258.273438 L 110.054688 257.324219 C 110.054688 257.324219 116.375 221.191406 117.144531 214.808594 C 119.03125 199.222656 122.066406 185.605469 122.339844 185.996094 C 125.652344 190.71875 144.542969 202.058594 145.492188 209.144531 C 146.441406 216.226562 127.539062 225.675781 127.539062 225.675781 L 134.628906 236.539062 C 134.628906 236.539062 163.445312 221.894531 166.28125 211.503906 C 169.117188 201.109375 144.542969 159.539062 144.542969 159.539062 L 140.769531 146.785156 L 103.445312 144.425781 " fill-opacity="1" fill-rule="nonzero"/><path fill="#f27949" d="M 145.109375 57.335938 C 145.109375 57.335938 135.566406 53.722656 124.234375 74.984375 C 112.890625 96.238281 98.246094 146.785156 98.714844 149.148438 C 99.191406 151.511719 145.492188 158.125 146.441406 155.765625 C 147.378906 153.402344 151.164062 115.136719 154 117.5 C 156.835938 119.859375 175.257812 126.945312 179.039062 124.589844 C 182.816406 122.222656 197.941406 97.65625 196.523438 94.820312 C 195.105469 91.992188 188.488281 87.734375 187.539062 88.679688 C 185.402344 90.824219 183.765625 95.769531 177.621094 97.65625 C 171.480469 99.550781 154.183594 54.339844 145.109375 57.335938 " fill-opacity="1" fill-rule="nonzero"/><path fill="#1e545f" d="M 163.914062 20.1875 C 171.003906 17.351562 178.09375 19.71875 180.929688 25.378906 C 183.765625 31.050781 186.597656 30.109375 188.957031 33.882812 C 191.324219 37.667969 190.375 38.605469 187.539062 39.554688 C 184.703125 40.496094 183.765625 43.328125 180.457031 42.390625 C 177.152344 41.441406 173.371094 34.355469 171.003906 38.136719 C 168.644531 41.914062 170.0625 41.914062 166.75 43.328125 C 163.445312 44.753906 159.191406 55.140625 155.886719 60.339844 C 152.582031 65.539062 145.023438 58.921875 142.65625 57.035156 C 140.292969 55.140625 132.734375 60.339844 132.261719 57.035156 C 131.792969 53.722656 136.515625 47.582031 132.261719 46.640625 C 128.007812 45.695312 123.757812 40.023438 131.792969 37.191406 C 139.820312 34.355469 143.605469 29.164062 151.632812 23.492188 C 159.667969 17.824219 163.914062 20.1875 163.914062 20.1875 " fill-opacity="1" fill-rule="nonzero"/><path fill="#f27949" d="M 99.660156 258.035156 L 99.425781 259.691406 L 119.03125 265.125 C 119.03125 265.125 116.910156 262.996094 114.074219 261.105469 C 111.238281 259.210938 108.636719 257.324219 108.636719 257.324219 L 99.660156 258.035156 " fill-opacity="1" fill-rule="nonzero"/><path fill="#f27949" d="M 128.488281 227.328125 L 122.574219 229.921875 C 122.574219 229.921875 124.9375 240.320312 126.589844 240.558594 C 128.246094 240.792969 137.222656 243.863281 136.75 243.148438 C 136.28125 242.445312 131.558594 237.015625 131.558594 237.015625 L 132.496094 233 L 128.488281 227.328125 " fill-opacity="1" fill-rule="nonzero"/><path fill="#cfe9ed" d="M 119.089844 264.265625 C 119.046875 264.25 119.011719 264.242188 118.964844 264.226562 C 118.914062 264.140625 118.839844 264.050781 118.746094 263.980469 C 117.476562 263.023438 116.066406 262.082031 114.675781 261.320312 C 113.449219 260.652344 112.324219 261.703125 111.320312 262.378906 C 107.566406 261.488281 103.8125 260.609375 100.058594 259.710938 C 99.484375 259.578125 99.242188 260.445312 99.816406 260.59375 C 106.117188 262.261719 112.40625 263.980469 118.722656 265.585938 C 119.582031 265.808594 119.949219 264.46875 119.089844 264.265625 " fill-opacity="1" fill-rule="nonzero"/><path fill="#cfe9ed" d="M 110.605469 258.640625 C 110.578125 258.433594 110.421875 258.214844 110.203125 258.175781 C 109.402344 258.035156 108.617188 258.585938 108.058594 259.109375 C 107.492188 259.644531 108.328125 260.460938 108.910156 259.960938 C 109.109375 259.792969 109.335938 259.644531 109.578125 259.535156 C 109.835938 259.433594 110.109375 259.375 110.335938 259.203125 C 110.519531 259.066406 110.644531 258.882812 110.605469 258.640625 " fill-opacity="1" fill-rule="nonzero"/><path fill="#cfe9ed" d="M 111.03125 259.058594 C 110.769531 259.191406 110.59375 259.417969 110.363281 259.601562 C 110.167969 259.769531 109.953125 259.917969 109.726562 260.042969 C 109.425781 260.195312 109.550781 260.738281 109.910156 260.710938 C 110.5625 260.652344 111.453125 260.429688 111.761719 259.785156 C 111.988281 259.300781 111.523438 258.824219 111.03125 259.058594 " fill-opacity="1" fill-rule="nonzero"/><path fill="#cfe9ed" d="M 136.117188 242.027344 C 135.714844 241.835938 135.605469 241.335938 135.363281 240.992188 C 135.082031 240.601562 134.695312 240.292969 134.230469 240.144531 C 133.351562 239.851562 132.292969 240.09375 131.703125 240.835938 C 131.683594 240.859375 131.667969 240.878906 131.644531 240.910156 C 131.558594 240.886719 131.460938 240.867188 131.375 240.851562 C 131.074219 240.785156 130.765625 240.726562 130.460938 240.660156 C 130.398438 240.601562 130.316406 240.550781 130.21875 240.511719 C 129.882812 240.382812 129.566406 240.117188 129.398438 239.816406 C 129.355469 239.734375 129.292969 239.675781 129.230469 239.625 C 129.109375 238.53125 128.640625 237.5 128.214844 236.496094 C 127.804688 235.503906 127.332031 234.535156 126.828125 233.578125 C 126.335938 232.65625 125.785156 231.738281 125.1875 230.878906 C 124.703125 230.1875 124.144531 229.621094 123.324219 229.371094 C 123.019531 229.285156 122.792969 229.394531 122.652344 229.578125 C 122.265625 229.636719 121.90625 230.085938 122.109375 230.5625 C 122.832031 232.214844 123.476562 233.894531 124.058594 235.601562 C 124.609375 237.222656 124.96875 238.964844 125.652344 240.535156 C 125.789062 240.851562 126.152344 240.9375 126.464844 240.859375 C 127.804688 241.460938 129.167969 241.8125 130.609375 242.136719 C 131.328125 242.296875 132.058594 242.453125 132.769531 242.65625 C 133.546875 242.886719 134.296875 243.363281 135.074219 243.503906 C 135.253906 243.53125 135.414062 243.503906 135.546875 243.421875 C 136.308594 243.507812 136.976562 242.421875 136.117188 242.027344 " fill-opacity="1" fill-rule="nonzero"/><path fill="#cfe9ed" d="M 131.851562 234.570312 C 131.558594 234.25 131.144531 234.058594 130.71875 233.976562 C 130.351562 233.902344 129.933594 234.070312 129.847656 234.46875 C 129.765625 234.820312 129.949219 235.269531 130.34375 235.34375 C 130.425781 235.355469 130.507812 235.378906 130.585938 235.402344 C 130.617188 235.410156 130.777344 235.480469 130.652344 235.417969 C 130.785156 235.480469 130.917969 235.546875 131.050781 235.613281 C 131.25 235.710938 131.519531 235.753906 131.71875 235.613281 C 131.878906 235.496094 131.953125 235.394531 132.019531 235.21875 C 132.117188 234.996094 131.996094 234.726562 131.851562 234.570312 " fill-opacity="1" fill-rule="nonzero"/><path fill="#cfe9ed" d="M 132.710938 236.394531 C 132.613281 236.03125 132.277344 235.90625 131.945312 235.960938 C 131.453125 236.027344 131.007812 236.1875 130.550781 236.355469 C 130.308594 236.445312 130.148438 236.648438 130.183594 236.921875 C 130.21875 237.164062 130.425781 237.378906 130.691406 237.363281 C 131.226562 237.339844 131.753906 237.304688 132.277344 237.164062 C 132.601562 237.074219 132.796875 236.714844 132.710938 236.394531 " fill-opacity="1" fill-rule="nonzero"/><path fill="#4eadad" d="M 246.894531 67.410156 C 245.785156 65.265625 244.359375 63.292969 242.75 61.492188 C 242.816406 61.21875 242.875 60.957031 242.917969 60.683594 C 243.71875 61.894531 244.507812 63.109375 245.320312 64.304688 C 246.011719 65.328125 246.679688 66.367188 247.386719 67.382812 C 247.222656 67.382812 247.054688 67.398438 246.894531 67.410156 Z M 243.148438 66.140625 C 242.675781 65.371094 242.273438 64.5625 241.921875 63.734375 C 242.105469 63.402344 242.257812 63.058594 242.390625 62.703125 C 243.667969 64.238281 244.769531 65.890625 245.746094 67.640625 C 245.328125 67.773438 244.925781 67.941406 244.535156 68.148438 C 244.152344 67.449219 243.566406 66.808594 243.148438 66.140625 Z M 238.835938 73.792969 C 237.261719 75.792969 235.699219 77.789062 234.117188 79.792969 L 231.855469 82.667969 C 231.476562 83.160156 231.054688 83.636719 230.652344 84.136719 C 230.492188 83.070312 230.328125 82.011719 230.183594 80.957031 C 229.960938 79.472656 229.742188 77.988281 229.511719 76.503906 C 229.558594 76.484375 229.59375 76.460938 229.636719 76.421875 C 231.101562 75.175781 232.378906 73.640625 233.714844 72.265625 C 235.109375 70.835938 236.515625 69.410156 237.902344 67.992188 C 238.546875 67.339844 239.1875 66.683594 239.839844 66.039062 C 240.265625 65.628906 240.746094 65.246094 241.148438 64.804688 C 241.449219 65.511719 241.78125 66.199219 242.164062 66.867188 C 242.539062 67.523438 242.949219 68.257812 243.492188 68.808594 C 241.664062 70.128906 240.136719 72.148438 238.835938 73.792969 Z M 231.035156 96.953125 C 230.886719 97.496094 229.9375 97.78125 229.410156 97.824219 C 228.351562 97.929688 227.273438 97.914062 226.214844 97.929688 C 223.929688 97.964844 221.644531 97.933594 219.363281 97.847656 C 214.945312 97.671875 210.554688 97.199219 206.199219 96.519531 C 206.210938 96.496094 206.226562 96.472656 206.25 96.453125 C 206.308594 96.472656 206.375 96.488281 206.449219 96.488281 C 210.488281 96.585938 214.527344 96.546875 218.566406 96.644531 C 222.59375 96.730469 226.679688 96.710938 230.6875 97.070312 C 230.84375 97.082031 230.953125 97.03125 231.035156 96.953125 Z M 249.691406 68.023438 C 248.757812 66.421875 247.597656 64.929688 246.535156 63.417969 C 245.460938 61.890625 244.351562 60.398438 243.265625 58.886719 C 243.074219 58.605469 242.773438 58.554688 242.515625 58.628906 C 242.273438 58.613281 242.046875 58.738281 241.992188 59.054688 C 241.707031 60.808594 241.3125 62.292969 240.328125 63.785156 C 239.855469 64.503906 239.4375 65.164062 238.84375 65.789062 C 238.1875 66.480469 237.5 67.117188 236.828125 67.785156 C 235.523438 69.070312 234.207031 70.371094 232.890625 71.65625 C 231.71875 72.808594 230.425781 73.917969 229.300781 75.136719 C 228.835938 72.113281 228.34375 69.085938 227.847656 66.066406 C 227.765625 65.589844 226.941406 65.695312 226.992188 66.179688 C 227.566406 71.128906 228.167969 76.0625 228.835938 81.007812 C 229.058594 82.644531 229.269531 84.289062 229.476562 85.941406 C 229.476562 86.015625 229.484375 86.089844 229.507812 86.164062 C 229.910156 89.3125 230.3125 92.472656 230.835938 95.601562 C 230.746094 95.738281 230.710938 95.910156 230.753906 96.078125 C 230.734375 96.070312 230.710938 96.070312 230.6875 96.070312 C 226.664062 96.203125 222.59375 95.945312 218.566406 95.804688 C 214.527344 95.671875 210.488281 95.402344 206.449219 95.269531 C 207.308594 85.65625 207.9375 76.011719 208.695312 66.382812 C 214.199219 65.78125 219.992188 65.671875 225.449219 66.65625 C 226.429688 66.824219 226.632812 65.40625 225.632812 65.304688 C 222.800781 65.011719 219.992188 64.695312 217.144531 64.652344 C 214.300781 64.605469 211.457031 64.746094 208.636719 65.054688 C 208.304688 65.089844 208.101562 65.320312 208.035156 65.570312 C 207.769531 65.621094 207.519531 65.8125 207.496094 66.148438 C 206.660156 76.128906 205.667969 86.105469 204.949219 96.097656 C 204.933594 96.289062 204.984375 96.4375 205.074219 96.546875 C 204.683594 96.847656 204.648438 97.546875 205.25 97.640625 C 210.664062 98.523438 216.160156 99.042969 221.644531 99.207031 C 224.28125 99.285156 227.023438 99.433594 229.652344 99.148438 C 230.59375 99.050781 231.5625 98.730469 232.121094 97.90625 C 232.5625 97.253906 232.636719 96.511719 232.304688 95.855469 C 232.304688 95.828125 232.3125 95.804688 232.304688 95.777344 C 231.9375 92.480469 231.429688 89.179688 230.921875 85.898438 C 231.554688 85.207031 232.097656 84.414062 232.671875 83.695312 C 233.390625 82.777344 234.125 81.859375 234.855469 80.949219 C 236.269531 79.15625 237.695312 77.363281 239.113281 75.570312 C 240.941406 73.273438 243.382812 69.417969 246.578125 68.894531 C 246.710938 68.941406 246.863281 68.917969 246.988281 68.84375 C 247.589844 68.800781 248.207031 68.875 248.863281 69.101562 C 249.480469 69.320312 250 68.550781 249.691406 68.023438 " fill-opacity="1" fill-rule="nonzero"/><path fill="#1e545f" d="M 175.765625 42.007812 C 174.898438 41.625 173.738281 41.640625 172.804688 41.515625 C 172.1875 41.433594 172.03125 42.507812 172.65625 42.609375 C 173.132812 42.691406 173.613281 42.777344 174.089844 42.859375 C 174.542969 42.941406 175.03125 43.078125 175.484375 43.027344 C 175.957031 42.976562 176.328125 42.257812 175.765625 42.007812 " fill-opacity="1" fill-rule="nonzero"/><path fill="#f0a083" d="M 178.320312 43.878906 C 177.828125 45.394531 177.601562 46.941406 177.519531 48.523438 C 177.476562 49.242188 177.453125 50.035156 177 50.628906 C 176.578125 51.171875 175.808594 51.289062 175.484375 50.59375 C 175.207031 50.003906 174.300781 50.425781 174.464844 51.019531 C 174.667969 51.789062 175.375 52.253906 176.160156 52.261719 C 177 52.269531 177.710938 51.710938 178.101562 50.996094 C 178.605469 50.070312 178.546875 49.035156 178.554688 48.007812 C 178.5625 46.679688 178.804688 45.394531 179.203125 44.128906 C 179.378906 43.566406 178.503906 43.328125 178.320312 43.878906 " fill-opacity="1" fill-rule="nonzero"/></svg>